<svg xmlns="http://www.w3.org/2000/svg" viewBox="0 0 64 64" role="img" aria-label="Bitcoin logo">
  <rect width="64" height="64" rx="12" fill="#f7931a" />
  <path
    fill="#fff"
    d="M36.6 17.4c3.1 0.9 5 3.1 5 6.3 0 3.4-2.1 5.8-5.2 6.8l0.1 0.2c3.8 0.7 6 3.2 6 7 0 5.1-4 8.6-10.4 8.6h-7.4l-1.2 5.1h-5.8l1.2-5.1h-4.7V41h6.1l2.1-9.5H15v-5.5h7.6l2.3-10.5H18V9.9h6.8l1.2-5.1h5.8l-1.2 5.1h4.7c0.4 0 0.8 0 1.3 0.1Zm-8.7 14-2.1 9.5h6.6c3.4 0 5.6-1.6 5.6-4.3 0-2.9-2.2-4.3-6.2-4.3h-3.9Zm2.1-5.5 2.3-10.5h4.1c2.9 0 4.7 1.3 4.7 3.8 0 3-2.3 5-5.7 5h-5.4Z"
  />
  <path fill="#fff" d="M30 7h6v5h-6V7Zm-2.8 50H33v-5h-5.8v5Z" />
</svg>
