<svg xmlns="http://www.w3.org/2000/svg" viewBox="0 0 640 360">
  <defs>
    <linearGradient id="bg" x1="0%" y1="0%" x2="100%" y2="100%">
      <stop offset="0%" stop-color="#0f172a" />
      <stop offset="100%" stop-color="#1d3557" />
    </linearGradient>
  </defs>
  <rect width="640" height="360" fill="url(#bg)" rx="24" />
  <text x="40" y="60" fill="#a5f3fc" font-family="Inter, Arial" font-size="28">
    the-kanban — board view
  </text>
  <g transform="translate(40 100)">
    <rect width="160" height="220" rx="18" fill="rgba(148,163,184,0.18)" stroke="#94a3b8" stroke-dasharray="6 6" />
    <rect x="20" y="20" width="120" height="42" rx="10" fill="#f87171" opacity="0.9" />
    <rect x="20" y="72" width="120" height="42" rx="10" fill="#60a5fa" opacity="0.9" />
    <rect x="20" y="124" width="120" height="42" rx="10" fill="#34d399" opacity="0.9" />
    <text x="20" y="210" fill="#e2e8f0" font-family="Inter, Arial" font-size="18">
      backlog
    </text>
  </g>
  <g transform="translate(240 100)">
    <rect width="160" height="220" rx="18" fill="rgba(148,163,184,0.18)" stroke="#94a3b8" stroke-dasharray="6 6" />
    <rect x="20" y="20" width="120" height="42" rx="10" fill="#34d399" opacity="0.9" />
    <rect x="20" y="72" width="120" height="42" rx="10" fill="#fbbf24" opacity="0.9" />
    <rect x="20" y="124" width="120" height="42" rx="10" fill="#60a5fa" opacity="0.9" />
    <text x="20" y="210" fill="#e2e8f0" font-family="Inter, Arial" font-size="18">
      active
    </text>
  </g>
  <g transform="translate(440 100)">
    <rect width="160" height="220" rx="18" fill="rgba(148,163,184,0.18)" stroke="#94a3b8" stroke-dasharray="6 6" />
    <rect x="20" y="20" width="120" height="42" rx="10" fill="#a5f3fc" opacity="0.9" />
    <rect x="20" y="72" width="120" height="42" rx="10" fill="#f472b6" opacity="0.9" />
    <text x="20" y="210" fill="#e2e8f0" font-family="Inter, Arial" font-size="18">
      done
    </text>
  </g>
  <text x="40" y="322" fill="#cbd5f5" font-family="Inter, Arial" font-size="16">
    columns snap via drag-and-drop hooks · status colors mirror priority tokens
  </text>
</svg>
